<svg width="99" height="100" viewBox="0 0 99 100" fill="none" xmlns="http://www.w3.org/2000/svg">
<path fill-rule="evenodd" clip-rule="evenodd" d="M48.2138 80.5277C53.7738 85.9974 59.8352 91.156 63.49 98.2721C63.709 98.6949 64.2185 98.8552 64.6325 98.6278C65.0441 98.3982 65.2036 97.8709 64.9869 97.4455C61.2461 90.1636 55.0754 84.8553 49.3857 79.2593C49.0508 78.9266 48.513 78.9433 48.1903 79.2941C47.8652 79.6426 47.879 80.1951 48.2138 80.5277Z" fill="white"/>
<path fill-rule="evenodd" clip-rule="evenodd" d="M55.2661 71.4616C58.5324 71.4258 61.586 71.9673 64.4788 73.528C64.8918 73.7513 65.4029 73.5841 65.6233 73.1583C65.8412 72.7301 65.6831 72.202 65.2726 71.9811C62.1272 70.2835 58.8147 69.6797 55.2643 69.7178C54.7968 69.7218 54.4178 70.1159 54.42 70.5989C54.42 71.0792 54.8011 71.4679 55.2661 71.4616Z" fill="white"/>
<path fill-rule="evenodd" clip-rule="evenodd" d="M66.6481 48.3226C70.0128 46.1863 73.6096 45.4189 77.5041 46.08C77.9634 46.1577 78.4016 45.8357 78.4799 45.3595C78.5606 44.8857 78.2514 44.436 77.7921 44.3583C73.4813 43.6275 69.4972 44.4732 65.7716 46.8384C65.372 47.0906 65.2465 47.6309 65.4873 48.0392C65.7305 48.4502 66.251 48.5772 66.6481 48.3226Z" fill="white"/>
<path fill-rule="evenodd" clip-rule="evenodd" d="M42.1077 18.1517C41.1027 18.2906 40.1072 18.5221 39.1401 18.8556C38.7093 19.0038 37.8542 19.3754 37.3241 19.8844C36.7571 20.4247 36.5128 21.0998 36.7766 21.8231C37.1275 22.7832 37.6827 23.2376 38.2708 23.4067C38.8366 23.5701 39.4885 23.46 40.1468 23.1104C41.4046 22.4416 42.7121 20.8436 43.2976 19.7811C44.3014 19.7107 45.3096 19.7385 46.3086 19.8595C53.7491 20.7611 59.2869 28.1879 59.9997 37.9314C60.2485 41.3421 57.8857 45.8016 54.8574 50.1643C50.1431 56.9579 43.7046 63.4465 41.8796 65.405C41.43 65.8896 41.2154 66.2262 41.1885 66.3084C41.0508 66.7075 41.1914 66.9766 41.3109 67.1405C41.486 67.3756 41.6895 67.4906 41.8881 67.5441C42.1577 67.615 42.4617 67.5799 42.7697 67.3748C42.9386 67.2605 43.1317 67.0619 43.322 66.8355C43.4525 66.6771 43.5705 66.481 43.6975 66.3988C44.5136 65.8752 45.355 65.4055 46.1957 64.9262C49.0161 63.3098 51.9316 62.0503 54.9546 60.8961C64.5591 57.2282 74.395 53.06 84.7775 53.1371C85.2432 53.1404 85.6294 52.7535 85.6358 52.2711C85.6447 51.791 85.2723 51.3976 84.8039 51.3922C74.2148 51.3122 64.1754 55.5203 54.38 59.2602C51.8089 60.2423 49.3128 61.2994 46.8859 62.5775C49.9902 59.2028 54.1598 54.412 57.2676 49.6283C60.0319 45.3742 61.9262 41.1005 61.6846 37.7849C60.9039 27.1112 54.6688 19.1126 46.5198 18.1269C45.6479 18.0218 44.7666 17.979 43.8883 18.0051C45.58 10.7279 41.7606 3.59725 34.8247 1.33745C34.3798 1.19177 33.9038 1.44812 33.7592 1.90666C33.6172 2.36753 33.8595 2.85681 34.3045 3.0025C40.5544 5.03897 43.9072 11.5889 42.1077 18.1517ZM41.0373 20.1159C40.5742 20.2233 40.1163 20.3557 39.6619 20.5101C39.4194 20.5943 38.9709 20.7729 38.6209 21.0308C38.5397 21.092 38.4335 21.2074 38.3856 21.2619C38.4799 21.5112 38.577 21.6798 38.7372 21.7252C38.9364 21.7832 39.1524 21.6826 39.383 21.5603C39.9622 21.2539 40.5601 20.6887 41.0373 20.1159Z" fill="white"/>
</svg>
