<svg width="44" height="44" viewBox="0 0 44 44" fill="none" xmlns="http://www.w3.org/2000/svg">
<rect width="44" height="44" rx="22" fill="white"/>
<path fill-rule="evenodd" clip-rule="evenodd" d="M19.9998 12.7C19.655 12.7 19.3244 12.837 19.0806 13.0807C18.8368 13.3245 18.6998 13.6552 18.6998 14V15.3H25.2998V14C25.2998 13.6552 25.1628 13.3245 24.919 13.0807C24.6752 12.837 24.3446 12.7 23.9998 12.7H19.9998ZM26.6998 15.3V14C26.6998 13.2839 26.4153 12.5971 25.909 12.0908C25.4026 11.5845 24.7159 11.3 23.9998 11.3H19.9998C19.2837 11.3 18.597 11.5845 18.0906 12.0908C17.5843 12.5971 17.2998 13.2839 17.2998 14V15.3H12.9998C12.6132 15.3 12.2998 15.6134 12.2998 16C12.2998 16.3866 12.6132 16.7 12.9998 16.7H14.2998V30C14.2998 30.7161 14.5843 31.4028 15.0906 31.9092C15.597 32.4155 16.2837 32.7 16.9998 32.7H26.9998C27.7159 32.7 28.4026 32.4155 28.909 31.9092C29.4153 31.4028 29.6998 30.7161 29.6998 30V16.7H30.9998C31.3864 16.7 31.6998 16.3866 31.6998 16C31.6998 15.6134 31.3864 15.3 30.9998 15.3H26.6998ZM15.6998 16.7V30C15.6998 30.3448 15.8368 30.6754 16.0806 30.9192C16.3244 31.163 16.655 31.3 16.9998 31.3H26.9998C27.3446 31.3 27.6752 31.163 27.919 30.9192C28.1628 30.6754 28.2998 30.3448 28.2998 30V16.7H15.6998ZM19.9998 20.3C20.3864 20.3 20.6998 20.6134 20.6998 21V27C20.6998 27.3866 20.3864 27.7 19.9998 27.7C19.6132 27.7 19.2998 27.3866 19.2998 27V21C19.2998 20.6134 19.6132 20.3 19.9998 20.3ZM23.9998 20.3C24.3864 20.3 24.6998 20.6134 24.6998 21V27C24.6998 27.3866 24.3864 27.7 23.9998 27.7C23.6132 27.7 23.2998 27.3866 23.2998 27V21C23.2998 20.6134 23.6132 20.3 23.9998 20.3Z" fill="#2B2B2B"/>
</svg>
