<svg xmlns="http://www.w3.org/2000/svg" viewBox="0 0 24 30" fill="none" x="0px" y="0px"><path fill-rule="evenodd" clip-rule="evenodd" d="M13.5 6.5H4V5.5H13.5V6.5ZM20 6.5H16V5.5H20V6.5Z" fill="black"/><path fill-rule="evenodd" clip-rule="evenodd" d="M15.5 8V4H16.5V8H15.5Z" fill="black"/><path fill-rule="evenodd" clip-rule="evenodd" d="M10.5 12.5H20V11.5H10.5V12.5ZM4 12.5H8V11.5H4V12.5Z" fill="black"/><path fill-rule="evenodd" clip-rule="evenodd" d="M15.5 18.5H20V17.5H15.5V18.5ZM4 18.5H13V17.5H4V18.5Z" fill="black"/><path fill-rule="evenodd" clip-rule="evenodd" d="M8.5 14V10H7.5V14H8.5Z" fill="black"/><path fill-rule="evenodd" clip-rule="evenodd" d="M13.5 20V16H12.5V20H13.5Z" fill="black"/><text x="0" y="39" fill="#000000" font-size="5px" font-weight="bold" font-family="'Helvetica Neue', Helvetica, Arial-Unicode, Arial, Sans-serif">Created by Kawalan Icon</text><text x="0" y="44" fill="#000000" font-size="5px" font-weight="bold" font-family="'Helvetica Neue', Helvetica, Arial-Unicode, Arial, Sans-serif">from the Noun Project</text></svg>