<svg width="44" height="45" viewBox="0 0 44 45" fill="none" xmlns="http://www.w3.org/2000/svg">
<g clip-path="url(#clip0_43_6065)">
<path fill-rule="evenodd" clip-rule="evenodd" d="M41.022 14.2032C32.9484 29.6871 16.8205 35.9822 1.84124 27.2651C1.34257 26.9748 0.710211 27.1563 0.428778 27.6643C0.147345 28.1813 0.32326 28.8344 0.821924 29.1247C16.8777 38.4767 34.1937 31.8097 42.8478 15.2191C43.1186 14.7021 42.9296 14.0489 42.4256 13.7677C41.9217 13.4955 41.2929 13.6861 41.022 14.2032Z" fill="white"/>
<path d="M14.4469 20.6244C16.1147 20.6244 17.4667 19.23 17.4667 17.5099C17.4667 15.7898 16.1147 14.3954 14.4469 14.3954C12.7792 14.3954 11.4272 15.7898 11.4272 17.5099C11.4272 19.23 12.7792 20.6244 14.4469 20.6244Z" fill="white"/>
<path d="M26.9476 17.3113C28.5828 17.3113 29.9083 15.9442 29.9083 14.2577C29.9083 12.5712 28.5828 11.2041 26.9476 11.2041C25.3125 11.2041 23.9869 12.5712 23.9869 14.2577C23.9869 15.9442 25.3125 17.3113 26.9476 17.3113Z" fill="white"/>
</g>
<defs>
<clipPath id="clip0_43_6065">
<rect width="43.0164" height="44.3668" fill="white" transform="translate(0.294678 0.240967)"/>
</clipPath>
</defs>
</svg>
